<svg id="_лой_2" data-name=" лой 2" xmlns="http://www.w3.org/2000/svg" viewBox="0 0 133 70.4"><g id="_лой_1-2" data-name=" лой 1-2"><path d="M28.06,52.65a10.2,10.2,0,0,1-7.84-9.85c.06-4.49,3.33-8.47,6.45-9.1.33-.06,1.95-.17,5.33-.37,2.22-.15,2.66-.16,3.28-.51,1.06-.6,2.47-2,4-5.27,1.84-4,2-3.81,2.49-4.11a4.14,4.14,0,0,1,3.78-.22c1.75.47,2,1.22,3.54,1.76a8.91,8.91,0,0,0,5.81-.25c4-1.19,25.58-7.23,55.24-15.67a5.88,5.88,0,0,1,3.74-.73,6.29,6.29,0,0,1,4.42,3.29l4.8.38V9.07l-4.22-4.61V2.65L106.59,6.23a6.77,6.77,0,0,1-2.47,2.1,6.44,6.44,0,0,1-1.91.6L55.53,21.77c-1,.22-2.43.38-3.12-.41-.53-.6-.3-1.43,0-4s.47-4.07.17-4.84a5.64,5.64,0,0,0-4.19-3c-1.47-.27-3,0-6.07,1.8-5.74,3.32-5.44,5.21-8.78,6.48-2.7,1-5.35.58-10.67-.32s-5.83-2-9.51-2c-2.17,0-5.92,0-8.95,2.38s-3.74,6-4.1,7.87C-2.25,39.28,11.76,50.6,13.11,51.66c3.53,2.78,6,3.47,8.21,3.45A11.5,11.5,0,0,0,28.06,52.65Z" transform="translate(0 0)"/><circle cx="110.17" cy="3.97" r="1.32"/><circle cx="114.32" cy="2.64" r="1.32"/><circle cx="118.37" cy="1.32" r="1.32"/><path d="M38.1,43.36h5.48v6A7.68,7.68,0,0,1,41,51a9.08,9.08,0,0,1-3.14.56,7.57,7.57,0,0,1-3-.54,5.64,5.64,0,0,1-2.11-1.52,6.41,6.41,0,0,1-1.26-2.37A10.6,10.6,0,0,1,31.06,44a9.92,9.92,0,0,1,.46-3.12,6.84,6.84,0,0,1,1.31-2.36,5.75,5.75,0,0,1,2.07-1.5,6.8,6.8,0,0,1,2.72-.52,7.24,7.24,0,0,1,2.37.34,5.06,5.06,0,0,1,1.68.94,4.64,4.64,0,0,1,1.1,1.4,6.6,6.6,0,0,1,.59,1.72l-3,.38a6,6,0,0,0-.29-1,1.93,1.93,0,0,0-.49-.7,2.13,2.13,0,0,0-.8-.44,4.08,4.08,0,0,0-1.2-.15,2.9,2.9,0,0,0-2.6,1.3A6.65,6.65,0,0,0,34.16,44,6.57,6.57,0,0,0,35,47.71,3.16,3.16,0,0,0,37.86,49a6,6,0,0,0,1.63-.19,5.06,5.06,0,0,0,1.33-.59V45.84H38.1Z" transform="translate(0 0)"/><path d="M46.76,36.9h3v8.5a4.6,4.6,0,0,0,.64,2.7,2.46,2.46,0,0,0,2.14.88,2.43,2.43,0,0,0,2.13-.88,4.68,4.68,0,0,0,.63-2.7V36.9h3v8.5a8.46,8.46,0,0,1-.4,2.78,5.09,5.09,0,0,1-1.14,1.91,4.4,4.4,0,0,1-1.81,1.1,7.83,7.83,0,0,1-2.41.35,7.66,7.66,0,0,1-2.43-.36,4.53,4.53,0,0,1-1.81-1.11,4.76,4.76,0,0,1-1.12-1.93,9.29,9.29,0,0,1-.38-2.8Z" transform="translate(0 0)"/><path d="M61.9,36.9h3V51.18h-3Z" transform="translate(0 0)"/><path d="M72.1,39.48H67.8V36.9H79.4v2.58H75.1v11.7h-3Z" transform="translate(0 0)"/><path d="M84.48,36.9h2.84l5.36,14.28h-3.2l-1.14-3.3h-5l-1.14,3.3H79.12Zm3.08,8.52L85.82,40.3,84.1,45.42Z" transform="translate(0 0)"/><path d="M95.34,36.9h5.06a8.35,8.35,0,0,1,2.77.39,4.42,4.42,0,0,1,1.71,1,3.51,3.51,0,0,1,.86,1.4,5.06,5.06,0,0,1,.24,1.51,4.94,4.94,0,0,1-.5,2.32,3.92,3.92,0,0,1-1.68,1.58l2.9,6.06h-3.22l-2.4-5.36h-2.8v5.36H95.34V36.9Zm5.26,6.44a3.8,3.8,0,0,0,1.16-.15,1.78,1.78,0,0,0,.73-.42,1.46,1.46,0,0,0,.37-.65,3.12,3.12,0,0,0,.1-.84,2.24,2.24,0,0,0-.12-.73,1.57,1.57,0,0,0-.41-.62,2,2,0,0,0-.8-.42,4.66,4.66,0,0,0-1.29-.15H98.28v4Z" transform="translate(0 0)"/><path d="M49.4,66a3.13,3.13,0,0,0,1.19,2.17,4.89,4.89,0,0,0,2.83.67A5,5,0,0,0,55,68.61a2.78,2.78,0,0,0,1-.56,2,2,0,0,0,.54-.82,2.94,2.94,0,0,0,.16-1,3.1,3.1,0,0,0-.1-.81,1.72,1.72,0,0,0-.39-.71,2.51,2.51,0,0,0-.8-.56,5.14,5.14,0,0,0-1.31-.38l-1.8-.32A10.71,10.71,0,0,1,50.42,63,4.74,4.74,0,0,1,49,62.21,2.88,2.88,0,0,1,48.17,61a4.51,4.51,0,0,1-.29-1.7,3.47,3.47,0,0,1,.41-1.72,3.66,3.66,0,0,1,1.11-1.24,4.94,4.94,0,0,1,1.66-.74,8.54,8.54,0,0,1,2.08-.24,7.61,7.61,0,0,1,2.37.31,4.47,4.47,0,0,1,1.55.83A3.57,3.57,0,0,1,58,57.73a6.94,6.94,0,0,1,.47,1.37l-1.72.34a5,5,0,0,0-.41-1.07,2.5,2.5,0,0,0-.66-.78,2.86,2.86,0,0,0-1-.47A5.61,5.61,0,0,0,53.18,57a6.36,6.36,0,0,0-1.64.18,3,3,0,0,0-1.06.49,1.69,1.69,0,0,0-.57.74,2.53,2.53,0,0,0-.17.91,2.77,2.77,0,0,0,.13.91,1.6,1.6,0,0,0,.44.68,2.63,2.63,0,0,0,.81.48,6.84,6.84,0,0,0,1.24.33l2,.36a6.47,6.47,0,0,1,3.26,1.39,3.73,3.73,0,0,1,1,2.85,4,4,0,0,1-.33,1.61,3.67,3.67,0,0,1-1,1.31,4.7,4.7,0,0,1-1.63.88,7.51,7.51,0,0,1-2.3.32,9.34,9.34,0,0,1-2.29-.25,5.22,5.22,0,0,1-1.79-.79A4.06,4.06,0,0,1,48.12,68a5,5,0,0,1-.56-2Z" transform="translate(0 0)"/><path d="M73.48,65.34a6.63,6.63,0,0,1-.54,2A4.93,4.93,0,0,1,70.05,70a7,7,0,0,1-2.39.38A6.82,6.82,0,0,1,65,69.9a5.29,5.29,0,0,1-2-1.46,6.7,6.7,0,0,1-1.27-2.35,10.28,10.28,0,0,1-.45-3.17,9.87,9.87,0,0,1,.48-3.2,6.87,6.87,0,0,1,1.34-2.36,5.64,5.64,0,0,1,2-1.46,6.42,6.42,0,0,1,2.53-.5,6.64,6.64,0,0,1,2.28.34,4.79,4.79,0,0,1,1.63,1,4.71,4.71,0,0,1,1.08,1.48,8.83,8.83,0,0,1,.63,1.9l-1.8.3A7.52,7.52,0,0,0,71,59a3.46,3.46,0,0,0-.74-1.07,3,3,0,0,0-1.08-.67A4.56,4.56,0,0,0,67.66,57a4,4,0,0,0-1.89.43,4.13,4.13,0,0,0-1.4,1.2,5.52,5.52,0,0,0-.87,1.86,9.83,9.83,0,0,0,0,4.82,5.67,5.67,0,0,0,.87,1.87,3.92,3.92,0,0,0,1.4,1.2,4.16,4.16,0,0,0,1.91.42,4.85,4.85,0,0,0,1.67-.25,3,3,0,0,0,1.14-.71,3.31,3.31,0,0,0,.71-1.1,6.52,6.52,0,0,0,.38-1.4Z" transform="translate(0 0)"/><path d="M76.76,55.76H78.6v6h7.22v-6h1.84V70H85.82V63.52H78.6V70H76.76Z" transform="translate(0 0)"/><path d="M97.68,70.4A7,7,0,0,1,95,69.91a5.72,5.72,0,0,1-2.08-1.44,6.59,6.59,0,0,1-1.35-2.35,9.83,9.83,0,0,1-.48-3.2,9.56,9.56,0,0,1,.49-3.2A6.9,6.9,0,0,1,93,57.36,5.65,5.65,0,0,1,95,55.9a7,7,0,0,1,2.65-.5,7,7,0,0,1,2.67.49,5.6,5.6,0,0,1,2.07,1.44,6.68,6.68,0,0,1,1.34,2.34,9.77,9.77,0,0,1,.48,3.19,10.23,10.23,0,0,1-.47,3.21,6.65,6.65,0,0,1-1.33,2.37,5.53,5.53,0,0,1-2.07,1.46A7,7,0,0,1,97.68,70.4Zm0-1.6a4.57,4.57,0,0,0,2-.42,4,4,0,0,0,1.45-1.19,5.35,5.35,0,0,0,.88-1.86,9.19,9.19,0,0,0,.3-2.43,9,9,0,0,0-.3-2.41,5.5,5.5,0,0,0-.89-1.87,4,4,0,0,0-1.45-1.2,4.5,4.5,0,0,0-2-.42,4.66,4.66,0,0,0-2,.42,4,4,0,0,0-1.46,1.2,5.31,5.31,0,0,0-.88,1.87A9.53,9.53,0,0,0,93,62.9a9.69,9.69,0,0,0,.29,2.43,5.17,5.17,0,0,0,.87,1.86,4,4,0,0,0,1.45,1.19A4.66,4.66,0,0,0,97.68,68.8Z" transform="translate(0 0)"/><path d="M113.76,70.4a7,7,0,0,1-2.67-.49A5.72,5.72,0,0,1,109,68.47a6.59,6.59,0,0,1-1.35-2.35,9.83,9.83,0,0,1-.48-3.2,9.56,9.56,0,0,1,.49-3.2A6.9,6.9,0,0,1,109,57.36a5.65,5.65,0,0,1,2.08-1.46,7,7,0,0,1,2.65-.5,7,7,0,0,1,2.67.49,5.6,5.6,0,0,1,2.07,1.44,6.68,6.68,0,0,1,1.34,2.34,9.77,9.77,0,0,1,.48,3.19,10.23,10.23,0,0,1-.47,3.21,6.65,6.65,0,0,1-1.33,2.37,5.53,5.53,0,0,1-2.07,1.46A7,7,0,0,1,113.76,70.4Zm0-1.6a4.57,4.57,0,0,0,2-.42,4,4,0,0,0,1.45-1.19,5.35,5.35,0,0,0,.88-1.86,9.19,9.19,0,0,0,.3-2.43,9,9,0,0,0-.3-2.41,5.5,5.5,0,0,0-.89-1.87,4,4,0,0,0-1.45-1.2,4.5,4.5,0,0,0-2-.42,4.66,4.66,0,0,0-2,.42,4,4,0,0,0-1.46,1.2,5.31,5.31,0,0,0-.88,1.87,9.53,9.53,0,0,0-.29,2.41,9.69,9.69,0,0,0,.29,2.43,5.17,5.17,0,0,0,.87,1.86,4,4,0,0,0,1.45,1.19A4.66,4.66,0,0,0,113.76,68.8Z" transform="translate(0 0)"/><path d="M123.76,55.76h1.84V68.4H133L132.72,70h-9Z" transform="translate(0 0)"/></g></svg>